# xmcd
#
# Track frame offsets:
#	225
#	14427
#	29308
#	46196
#	60036
#	74229
#	89945
#	139821
#	156036
#	173139
#	191829
#	209888
#	236607
#	253635
#
# Disc length: 4061
#
# Revision: 2
# Processed by: cddbd v1.5.1PL0 Copyright (c) Steve Scherf et al.
# Submitted via: audiograbber 1.81.02
# Normalized: r1:TRMNUM
#
DISCID=d00fda0e
DTITLE=Grupo alegría - Eternamente Tuyo
DYEAR=1900
DGENRE=
TTITLE0=Mentiste
TTITLE1=Mil Noches
TTITLE2=En el Altar
TTITLE3=Para Olvidar
TTITLE4=Marchate
TTITLE5=Con el Viento
TTITLE6=Mix Sabroson
TTITLE7=Cruel Condena
TTITLE8=Desepcionado
TTITLE9=Mal Amor
TTITLE10=Vuelve mi Amor
TTITLE11=Que Pena
TTITLE12=Copas de  licor
TTITLE13=Mix del amor
EXTD=Musica Tropical
EXTT0=
EXTT1=
EXTT2=
EXTT3=
EXTT4=
EXTT5=
EXTT6=
EXTT7=
EXTT8=
EXTT9=
EXTT10=
EXTT11=
EXTT12=
EXTT13=
PLAYORDER=
